<?xml version="1.0" encoding="UTF-8" standalone="no"?>
<svg
   xmlns:dc="http://purl.org/dc/elements/1.1/"
   xmlns:cc="http://creativecommons.org/ns#"
   xmlns:rdf="http://www.w3.org/1999/02/22-rdf-syntax-ns#"
   xmlns:svg="http://www.w3.org/2000/svg"
   xmlns="http://www.w3.org/2000/svg"
   version="1.1"
   width="143.22034"
   height="106.35593"
   id="svg6">
  <metadata
     id="metadata12">
    <rdf:RDF>
      <cc:Work
         rdf:about="">
        <dc:format>image/svg+xml</dc:format>
        <dc:type
           rdf:resource="http://purl.org/dc/dcmitype/StillImage" />
        <dc:title></dc:title>
      </cc:Work>
    </rdf:RDF>
  </metadata>
  <defs
     id="defs10" />
  <rect
     y="0"
     x="0"
     height="106.35593"
     width="143.22034"
     id="rect4484"
     style="opacity:0;fill:#a7a7a7;fill-opacity:1;stroke:none;stroke-width:1.0172224;stroke-linecap:round;stroke-linejoin:miter;stroke-miterlimit:4;stroke-dasharray:none;stroke-opacity:1" />
  <path
     d="M 100.38363,95.771458 H 30.674626 c -1.776,0 -3.217,-1.44 -3.217,-3.218 v -69.709 c 0,-1.777 1.441,-3.217 3.217,-3.217 h 34.854 c 1.777,0 3.217,1.441 3.217,3.217 0,1.776 -1.441,3.217 -3.217,3.217 h -31.636 v 63.275 h 63.274 v -31.638 c 0,-1.777 1.441,-3.217 3.217004,-3.217 1.777,0 3.217,1.441 3.217,3.217 v 34.855 c 0.001,1.778 -1.44,3.218 -3.217,3.218 z"
     id="path2"
     style="fill:#e8e8e8;fill-opacity:1;stroke:none;stroke-opacity:1" />
  <path
     d="m 116.51663,16.881458 -10.027,-10.0170005 c -1.255,-1.255 -3.292,-1.255 -4.547,0 l -9.062004,9.0730005 -35.027,35.026 c -0.29,0.29 -0.525,0.633 -0.686,1.008 l -7.496,17.513 c -0.526,1.212 -0.247,2.617 0.676,3.539 0.622,0.622 1.437,0.944 2.274,0.944 0.429,0 0.858,-0.086 1.276,-0.257 l 17.513,-7.496 c 0.375,-0.161 0.719,-0.397 1.008,-0.686 l 35.026004,-35.026 9.073,-9.062 c 1.254,-1.267 1.254,-3.304 -10e-4,-4.559 z m -57.773004,47.756 2.928,-6.821 3.893,3.893 z m 10.639,-5.169 -5.469,-5.469 31.551,-31.552 5.470004,5.469 z m 34.586004,-34.587 -5.469004,-5.469 5.716004,-5.716 5.469,5.459 z"
     id="path4"
     style="fill:#e8e8e8;fill-opacity:1" />
</svg>
